<?xml version="1.0" encoding="UTF-8" standalone="no"?><!DOCTYPE svg PUBLIC "-//W3C//DTD SVG 1.1//EN" "http://www.w3.org/Graphics/SVG/1.1/DTD/svg11.dtd"><svg width="100%" height="100%" viewBox="0 0 662 112" version="1.1" xmlns="http://www.w3.org/2000/svg" xmlns:xlink="http://www.w3.org/1999/xlink" xml:space="preserve" xmlns:serif="http://www.serif.com/" style="fill-rule:evenodd;clip-rule:evenodd;stroke-linejoin:round;stroke-miterlimit:2;"><g><g><g><path d="M9.636,30.867c0.034,-0.053 0.069,-0.105 0.106,-0.156c-0,0 10.627,-14.786 21.68,-23.639c5.347,-4.283 10.896,-7.097 15.521,-7.072c6.136,0.033 13.426,4.156 19.981,9.747c8.867,7.563 16.464,17.566 18.337,21.172c6.019,7.952 9.592,17.856 9.592,28.588c0,26.082 -21.289,51.58 -47.371,51.58c-26.079,0 -47.482,-25.5 -47.482,-51.58c0,-10.698 3.55,-20.573 9.535,-28.512c0.033,-0.044 0.066,-0.086 0.101,-0.128Zm-1.213,38.524c4.302,18.47 20.123,34.428 39.059,34.428c17.033,0 31.48,-12.913 37.325,-28.947c-0.431,0.659 -0.924,1.359 -1.476,2.085c-4.106,5.404 -11.347,12.956 -15.632,15.371c-5.37,3.027 -14.377,6.239 -25.685,-2.694c-10.821,-8.548 -26.446,-16.698 -33.591,-20.243Zm38.518,-0.154c-4.432,3.382 -9.018,5.113 -13.508,5.728c4.569,2.824 9.12,5.887 13.06,8.999c7.784,6.149 13.961,4.153 17.658,2.07c2.671,-1.506 6.602,-5.377 9.924,-9.175c-8.912,1.856 -19.166,1.055 -27.134,-7.622Zm32.034,-34.641c-3.947,3.385 -11.675,8.756 -22.137,10.09c-0.584,0.074 -1.192,0.155 -1.8,0.263c-1.794,0.318 -3.886,0.698 -3.93,3.199c-0.015,0.824 -0.026,1.725 -0.034,2.664c0.037,4.402 0.017,9.841 0.006,12.14c6.496,8.209 15.467,8.356 22.867,6.526c2.875,-0.711 5.537,-1.718 7.785,-2.729c0.097,-0.049 0.196,-0.094 0.297,-0.135c2.323,-1.062 4.18,-2.113 5.338,-2.815c0.145,-1.426 0.219,-2.858 0.219,-4.292c-0,-9.175 -3.084,-17.636 -8.272,-24.402c-0.096,-0.121 -0.186,-0.25 -0.267,-0.385l-0.011,-0.018l-0.016,-0.028c-0.008,-0.013 -0.016,-0.026 -0.023,-0.039l-0.022,-0.039Zm-62.942,-0.179c-0.252,0.343 -0.386,0.53 -0.386,0.53c-0.049,0.068 -0.1,0.134 -0.152,0.197c-0.049,0.077 -0.101,0.152 -0.157,0.225c-5.015,6.653 -8.01,14.913 -8.07,23.865c2.05,1.599 6.554,4.787 12.228,6.856c7.099,2.588 16.152,3.396 24.348,-3.647c-0.01,-1.781 -0.035,-7.115 0.004,-11.634c-0.008,-0.953 -0.019,-1.854 -0.034,-2.661c-0.033,-1.887 -1.287,-2.545 -2.607,-2.908c-1.026,-0.283 -2.113,-0.426 -3.123,-0.554c-10.639,-1.356 -18.263,-6.877 -22.051,-10.269Zm58.88,-5.853c-3.125,-3.961 -7.718,-9.034 -12.705,-13.288c-5.093,-4.343 -10.537,-7.983 -15.304,-8.009c-3.317,-0.017 -7.104,2.405 -10.939,5.478c-5.877,4.707 -11.618,11.209 -15.49,15.96c2.831,2.635 9.288,7.636 18.523,8.813c2.948,0.375 6.135,1.054 8.49,2.823c1.755,-1.347 3.999,-2.102 6.29,-2.507c0.725,-0.129 1.45,-0.227 2.146,-0.316c9.385,-1.196 16.099,-6.329 18.989,-8.954Z" style="fill:#3d3d3d;"/></g></g><g><path d="M141.809,84.45c3.401,0 6.713,-0.715 9.578,-1.967l0,-12.973c-2.238,2.597 -5.64,4.299 -9.578,4.299c-7.341,0 -12.712,-5.643 -12.712,-12.807c0,-7.165 5.371,-12.897 12.712,-12.897c3.938,0 7.34,1.702 9.578,4.389l0,-12.973c-2.865,-1.252 -6.177,-1.968 -9.578,-1.968c-13.607,0 -23.891,10.374 -23.891,23.449c0,13.075 10.284,23.448 23.891,23.448Z" style="fill:#3d3d3d;fill-rule:nonzero;"/><path d="M180.396,84.45c6.717,0 11.822,-2.504 15.225,-6.707l0.268,5.812l10.821,0l-0,-45.106l-11.626,0l-0,5.096c-3.314,-3.846 -8.24,-6.171 -14.688,-6.171c-12.178,0 -22.284,10.463 -22.284,23.538c-0,13.165 10.106,23.538 22.284,23.538Zm2.239,-10.552c-7.254,0 -12.896,-5.821 -12.896,-12.986c-0,-7.164 5.642,-12.896 12.896,-12.896c7.165,0 12.807,5.732 12.807,12.896c-0,7.165 -5.642,12.986 -12.807,12.986Z" style="fill:#3d3d3d;fill-rule:nonzero;"/><path d="M218.896,83.555l11.626,0l-0,-27.124c-0,-4.655 2.956,-8.505 7.615,-8.505c4.569,0 7.704,3.492 7.704,7.968l-0,27.661l11.626,0l-0,-27.124c-0,-4.655 3.046,-8.505 7.794,-8.505c4.39,0 7.525,3.492 7.525,7.968l-0,27.661l11.627,0l-0,-28.557c-0,-9.844 -7.066,-17.445 -16.643,-17.445c-5.823,0 -10.481,2.683 -13.433,7.065c-3.13,-4.382 -7.78,-7.065 -12.886,-7.065c-4.389,0 -8.241,2.057 -10.929,5.366l0,-4.47l-11.626,0l0,45.106Z" style="fill:#3d3d3d;fill-rule:nonzero;"/><path d="M339.383,60.552c-0.179,-13.789 -10.205,-22.999 -23.185,-22.999c-13.786,0 -23.812,10.375 -23.812,23.446c0,13.077 9.847,23.451 24.17,23.451c9.489,0 17.098,-4.649 20.768,-12.076l-9.31,-3.853c-2.417,4.211 -6.803,6.541 -11.548,6.541c-6.624,0 -11.816,-4.659 -12.712,-12.007l35.54,0l0.089,-2.503Zm-23.096,-13.789c5.282,0 8.863,2.869 10.742,7.441l-22.111,0c1.97,-4.572 5.908,-7.441 11.369,-7.441Z" style="fill:#3d3d3d;fill-rule:nonzero;"/><rect x="348.52" y="14.636" width="11.537" height="68.919" style="fill:#3d3d3d;"/><rect x="372.242" y="14.636" width="11.537" height="68.919" style="fill:#3d3d3d;"/><path d="M416.996,84.45c13.433,0 23.807,-10.373 23.807,-23.448c0,-13.075 -10.374,-23.449 -23.807,-23.449c-13.611,0 -23.896,10.374 -23.896,23.449c0,13.075 10.285,23.448 23.896,23.448Zm0,-10.731c-7.164,0 -12.807,-5.642 -12.807,-12.717c0,-7.075 5.643,-12.628 12.807,-12.628c6.896,0 12.539,5.553 12.539,12.628c0,7.075 -5.643,12.717 -12.539,12.717Z" style="fill:#3d3d3d;fill-rule:nonzero;"/></g><g><path d="M480.775,72.76l5.941,0.734c-0.937,3.471 -2.672,6.165 -5.206,8.082c-2.534,1.916 -5.771,2.874 -9.711,2.874c-4.961,0 -8.895,-1.528 -11.802,-4.583c-2.907,-3.056 -4.36,-7.342 -4.36,-12.857c-0,-5.707 1.469,-10.136 4.408,-13.288c2.939,-3.151 6.75,-4.727 11.435,-4.727c4.536,0 8.241,1.544 11.116,4.632c2.874,3.087 4.312,7.431 4.312,13.032c-0,0.341 -0.011,0.852 -0.032,1.533l-25.298,0c0.213,3.727 1.267,6.58 3.162,8.56c1.896,1.981 4.259,2.971 7.091,2.971c2.109,0 3.908,-0.554 5.399,-1.661c1.49,-1.107 2.672,-2.875 3.545,-5.302Zm-18.877,-9.295l18.941,0c-0.256,-2.854 -0.98,-4.994 -2.172,-6.421c-1.831,-2.214 -4.206,-3.322 -7.123,-3.322c-2.641,0 -4.861,0.884 -6.66,2.652c-1.799,1.767 -2.795,4.131 -2.986,7.091Z" style="fill:#3d3d3d;fill-rule:nonzero;"/><path d="M491.635,73.558l5.686,-0.894c0.319,2.278 1.208,4.024 2.667,5.238c1.459,1.214 3.498,1.821 6.117,1.821c2.64,0 4.599,-0.538 5.877,-1.613c1.278,-1.075 1.917,-2.337 1.917,-3.785c0,-1.299 -0.565,-2.321 -1.693,-3.067c-0.788,-0.511 -2.747,-1.16 -5.878,-1.948c-4.216,-1.065 -7.139,-1.986 -8.768,-2.763c-1.629,-0.777 -2.864,-1.853 -3.705,-3.226c-0.841,-1.374 -1.262,-2.891 -1.262,-4.552c0,-1.512 0.347,-2.912 1.039,-4.2c0.692,-1.288 1.634,-2.358 2.826,-3.21c0.895,-0.66 2.114,-1.219 3.658,-1.677c1.544,-0.458 3.199,-0.687 4.967,-0.687c2.661,-0 4.999,0.383 7.011,1.15c2.012,0.767 3.497,1.805 4.456,3.114c0.958,1.31 1.618,3.061 1.98,5.255l-5.622,0.766c-0.255,-1.746 -0.995,-3.109 -2.22,-4.088c-1.224,-0.98 -2.954,-1.47 -5.19,-1.47c-2.641,-0 -4.525,0.437 -5.654,1.31c-1.128,0.873 -1.693,1.895 -1.693,3.066c0,0.746 0.235,1.417 0.703,2.013c0.469,0.617 1.203,1.128 2.204,1.533c0.575,0.213 2.268,0.703 5.079,1.469c4.067,1.086 6.904,1.975 8.512,2.667c1.608,0.692 2.87,1.699 3.785,3.019c0.916,1.32 1.374,2.96 1.374,4.919c0,1.916 -0.559,3.721 -1.677,5.414c-1.118,1.693 -2.731,3.003 -4.839,3.929c-2.108,0.926 -4.493,1.389 -7.155,1.389c-4.408,-0 -7.767,-0.915 -10.078,-2.747c-2.31,-1.831 -3.785,-4.546 -4.424,-8.145Z" style="fill:#3d3d3d;fill-rule:nonzero;"/><path d="M539.196,78.541l0.831,5.079c-1.619,0.341 -3.067,0.511 -4.344,0.511c-2.087,0 -3.705,-0.33 -4.855,-0.99c-1.15,-0.66 -1.959,-1.528 -2.428,-2.604c-0.468,-1.075 -0.703,-3.337 -0.703,-6.787l0,-19.516l-4.216,0l0,-4.472l4.216,0l0,-8.401l5.718,-3.45l0,11.851l5.781,0l0,4.472l-5.781,0l0,19.835c0,1.64 0.101,2.694 0.303,3.162c0.203,0.469 0.533,0.842 0.991,1.118c0.457,0.277 1.112,0.416 1.964,0.416c0.639,0 1.48,-0.075 2.523,-0.224Z" style="fill:#3d3d3d;fill-rule:nonzero;"/><path d="M567.049,83.684l0,-4.983c-2.64,3.833 -6.228,5.749 -10.764,5.749c-2.002,0 -3.87,-0.383 -5.606,-1.15c-1.735,-0.766 -3.023,-1.73 -3.865,-2.89c-0.841,-1.161 -1.432,-2.582 -1.772,-4.265c-0.235,-1.128 -0.352,-2.917 -0.352,-5.366l0,-21.017l5.75,0l0,18.813c0,3.003 0.117,5.026 0.351,6.069c0.362,1.512 1.129,2.699 2.3,3.562c1.171,0.862 2.619,1.293 4.344,1.293c1.725,0 3.343,-0.442 4.855,-1.325c1.512,-0.884 2.582,-2.087 3.21,-3.61c0.628,-1.522 0.943,-3.731 0.943,-6.628l0,-18.174l5.749,0l0,33.922l-5.143,0Z" style="fill:#3d3d3d;fill-rule:nonzero;"/><path d="M603.207,83.684l0,-4.28c-2.15,3.364 -5.313,5.046 -9.486,5.046c-2.705,0 -5.191,-0.745 -7.459,-2.236c-2.268,-1.49 -4.024,-3.572 -5.27,-6.244c-1.246,-2.673 -1.869,-5.744 -1.869,-9.215c0,-3.386 0.565,-6.458 1.693,-9.216c1.129,-2.757 2.822,-4.871 5.079,-6.34c2.257,-1.469 4.781,-2.204 7.57,-2.204c2.044,0 3.865,0.431 5.462,1.294c1.597,0.862 2.896,1.985 3.897,3.37l0,-16.802l5.718,0l0,46.827l-5.335,0Zm-18.174,-16.929c0,4.344 0.915,7.591 2.747,9.742c1.831,2.151 3.992,3.226 6.484,3.226c2.512,0 4.647,-1.028 6.404,-3.082c1.757,-2.055 2.635,-5.191 2.635,-9.407c0,-4.642 -0.894,-8.05 -2.683,-10.222c-1.789,-2.172 -3.993,-3.258 -6.612,-3.258c-2.555,0 -4.69,1.044 -6.404,3.131c-1.714,2.087 -2.571,5.377 -2.571,9.87Z" style="fill:#3d3d3d;fill-rule:nonzero;"/><path d="M617.613,43.469l0,-6.612l5.75,0l0,6.612l-5.75,0Zm0,40.215l0,-33.922l5.75,0l0,33.922l-5.75,0Z" style="fill:#3d3d3d;fill-rule:nonzero;"/><path d="M629.974,66.723c0,-6.282 1.747,-10.935 5.239,-13.959c2.917,-2.513 6.473,-3.769 10.668,-3.769c4.664,0 8.476,1.528 11.436,4.584c2.959,3.055 4.439,7.277 4.439,12.665c0,4.365 -0.654,7.799 -1.964,10.301c-1.31,2.502 -3.215,4.445 -5.718,5.829c-2.502,1.384 -5.233,2.076 -8.193,2.076c-4.748,0 -8.587,-1.522 -11.515,-4.567c-2.928,-3.045 -4.392,-7.432 -4.392,-13.16Zm5.91,0c0,4.344 0.947,7.596 2.842,9.758c1.896,2.161 4.281,3.242 7.155,3.242c2.854,0 5.228,-1.086 7.123,-3.258c1.896,-2.172 2.843,-5.483 2.843,-9.934c0,-4.195 -0.953,-7.373 -2.859,-9.535c-1.905,-2.161 -4.274,-3.242 -7.107,-3.242c-2.874,0 -5.259,1.076 -7.155,3.226c-1.895,2.151 -2.842,5.399 -2.842,9.743Z" style="fill:#3d3d3d;fill-rule:nonzero;"/></g></g></svg>